<svg xmlns="http://www.w3.org/2000/svg" width="238.252" height="59.824" viewBox="0 0 238.252 59.824">
  <g id="Groupe_2" data-name="Groupe 2" transform="translate(-45.996 -55.568)">
    <path id="Tracé_1" data-name="Tracé 1" d="M187.264,59.492V71.057L163.483,90.7H159.02l-13.7-11.367v-9.07l15.846,14.58Z" transform="translate(9.838 0.389)" fill="#ffa40a"/>
    <path id="Tracé_2" data-name="Tracé 2" d="M187.924,62.744a4.19,4.19,0,0,1,2.985-7.176,3.985,3.985,0,0,1,2.928,1.2,4.3,4.3,0,0,1,0,5.971,3.982,3.982,0,0,1-2.928,1.206A4.05,4.05,0,0,1,187.924,62.744Zm6.2,5.4V99.775h-6.546V68.141Z" transform="translate(13.939)" fill="#fff"/>
    <path id="Tracé_3" data-name="Tracé 3" d="M223.941,68.088a11.03,11.03,0,0,1,4.622,4.593,15.111,15.111,0,0,1,1.665,7.349V98.689H223.74V81.006q0-4.248-2.124-6.516a7.559,7.559,0,0,0-5.8-2.268,7.652,7.652,0,0,0-5.827,2.268q-2.153,2.268-2.153,6.516V98.689h-6.545V67.055h6.545v3.617a10.837,10.837,0,0,1,4.1-3.043,13.133,13.133,0,0,1,5.311-1.09A14.191,14.191,0,0,1,223.941,68.088Z" transform="translate(15.382 1.087)" fill="#fff"/>
    <path id="Tracé_4" data-name="Tracé 4" d="M254.653,68a12.528,12.528,0,0,1,4.45,3.646V67.055h6.6V99.206a16.175,16.175,0,0,1-1.838,7.779,13.284,13.284,0,0,1-5.311,5.368,16.675,16.675,0,0,1-8.3,1.952,18,18,0,0,1-10.679-3.015,11.119,11.119,0,0,1-4.823-8.181h6.488a7.036,7.036,0,0,0,3.187,3.991,10.8,10.8,0,0,0,5.827,1.521,8.714,8.714,0,0,0,6.4-2.411q2.438-2.41,2.44-7V93.924a13.6,13.6,0,0,1-10.966,5.282,14.147,14.147,0,0,1-7.549-2.1,14.773,14.773,0,0,1-5.4-5.856,18.015,18.015,0,0,1-1.98-8.525,17.515,17.515,0,0,1,1.98-8.44,14.431,14.431,0,0,1,12.947-7.751A14.031,14.031,0,0,1,254.653,68Zm3.1,9.157a9.467,9.467,0,0,0-3.531-3.674,9.241,9.241,0,0,0-4.707-1.264,9.283,9.283,0,0,0-8.24,4.851,11.3,11.3,0,0,0-1.349,5.656,11.781,11.781,0,0,0,1.349,5.74,9.519,9.519,0,0,0,3.56,3.762,9.136,9.136,0,0,0,4.68,1.29,9.229,9.229,0,0,0,4.707-1.263,9.407,9.407,0,0,0,3.531-3.7,11.622,11.622,0,0,0,1.35-5.713A11.455,11.455,0,0,0,257.753,77.159Z" transform="translate(18.544 1.087)" fill="#fff"/>
    <path id="Tracé_5" data-name="Tracé 5" d="M57.105,67.767A14.121,14.121,0,0,1,63.564,66.3a14.573,14.573,0,0,1,7.578,2.009,14.133,14.133,0,0,1,5.339,5.712,17.9,17.9,0,0,1,1.953,8.469,18.226,18.226,0,0,1-1.953,8.525,14.572,14.572,0,0,1-5.368,5.856,15.019,15.019,0,0,1-14.066.661,12.522,12.522,0,0,1-4.507-3.674v4.593H46V55.969h6.545V71.527A12.421,12.421,0,0,1,57.105,67.767Zm13.319,9.07a9.261,9.261,0,0,0-3.56-3.617,9.566,9.566,0,0,0-4.736-1.234,9.3,9.3,0,0,0-4.679,1.263,9.4,9.4,0,0,0-3.56,3.675,11.444,11.444,0,0,0-1.35,5.683,11.61,11.61,0,0,0,1.35,5.713,9.332,9.332,0,0,0,8.238,4.966A9.233,9.233,0,0,0,66.865,92a9.519,9.519,0,0,0,3.56-3.762,11.781,11.781,0,0,0,1.35-5.74A11.3,11.3,0,0,0,70.425,76.838Z" transform="translate(0 0.04)" fill="#fff"/>
    <path id="Tracé_6" data-name="Tracé 6" d="M120.559,96a14.644,14.644,0,0,1-5.684-5.741,17.328,17.328,0,0,1-2.066-8.584,16.981,16.981,0,0,1,2.124-8.554,14.666,14.666,0,0,1,5.8-5.741,17.779,17.779,0,0,1,16.42,0,14.681,14.681,0,0,1,5.8,5.741,16.992,16.992,0,0,1,2.124,8.554,16.638,16.638,0,0,1-2.182,8.555A15.108,15.108,0,0,1,136.95,96a17.133,17.133,0,0,1-8.3,2.039A16.2,16.2,0,0,1,120.559,96ZM133.39,91.15a9.192,9.192,0,0,0,3.588-3.618,11.622,11.622,0,0,0,1.378-5.856,11.885,11.885,0,0,0-1.32-5.827,8.932,8.932,0,0,0-3.5-3.588,9.585,9.585,0,0,0-4.707-1.206,9.422,9.422,0,0,0-4.68,1.206,8.6,8.6,0,0,0-3.416,3.588,12.306,12.306,0,0,0-1.264,5.827q0,5.111,2.612,7.894a8.634,8.634,0,0,0,6.575,2.784A9.742,9.742,0,0,0,133.39,91.15Z" transform="translate(6.618 0.971)" fill="#fff"/>
    <path id="Tracé_7" data-name="Tracé 7" d="M87.328,96a14.644,14.644,0,0,1-5.684-5.741,17.316,17.316,0,0,1-2.067-8.584A16.981,16.981,0,0,1,81.7,73.123a14.666,14.666,0,0,1,5.8-5.741,17.781,17.781,0,0,1,16.421,0,14.681,14.681,0,0,1,5.8,5.741,17,17,0,0,1,2.124,8.554,16.639,16.639,0,0,1-2.183,8.555A15.112,15.112,0,0,1,103.719,96a17.137,17.137,0,0,1-8.3,2.039A16.2,16.2,0,0,1,87.328,96Zm12.831-4.851a9.192,9.192,0,0,0,3.588-3.618,11.622,11.622,0,0,0,1.377-5.856,11.873,11.873,0,0,0-1.32-5.827,8.929,8.929,0,0,0-3.5-3.588,9.586,9.586,0,0,0-4.708-1.206,9.415,9.415,0,0,0-4.679,1.206A8.606,8.606,0,0,0,87.5,75.849a12.319,12.319,0,0,0-1.263,5.827q0,5.111,2.612,7.894a8.63,8.63,0,0,0,6.573,2.784A9.746,9.746,0,0,0,100.159,91.15Z" transform="translate(3.326 0.971)" fill="#fff"/>
    <rect id="Rectangle_1" data-name="Rectangle 1" width="42.61" height="6.728" transform="translate(151.186 92.368)" fill="#fff"/>
  </g>
</svg>
